<?xml version="1.0" standalone="no"?>
<!DOCTYPE svg PUBLIC "-//W3C//DTD SVG 20010904//EN"
 "http://www.w3.org/TR/2001/REC-SVG-20010904/DTD/svg10.dtd">
<svg version="1.0" xmlns="http://www.w3.org/2000/svg"
 width="150.000000pt" height="150.000000pt" viewBox="0 0 150.000000 150.000000"
 preserveAspectRatio="xMidYMid meet">
<metadata>
Created by potrace 1.14, written by Peter Selinger 2001-2017
</metadata>
<g transform="translate(0.000000,150.000000) scale(0.100000,-0.100000)"
fill="#000000" stroke="none">
<path d="M762 1367 c-12 -13 -22 -35 -22 -50 l0 -27 -114 0 c-89 0 -116 3
-126 15 -7 8 -23 15 -35 15 -13 0 -25 5 -27 11 -3 8 -105 13 -220 10 -12 -1
-18 -9 -18 -25 0 -13 -7 -26 -15 -30 -8 -3 -15 -17 -15 -31 0 -14 7 -28 15
-31 8 -4 15 -19 15 -35 0 -15 6 -32 14 -36 9 -5 16 -28 18 -63 2 -46 7 -57 26
-65 14 -6 22 -18 22 -34 0 -13 13 -39 30 -58 16 -18 30 -40 30 -48 0 -8 11
-17 25 -21 18 -4 25 -13 25 -29 0 -13 5 -27 10 -30 6 -3 10 -26 10 -50 0 -24
-4 -47 -10 -50 -5 -3 -10 -14 -10 -25 0 -11 -10 -20 -25 -24 -18 -5 -25 -13
-25 -32 0 -13 -9 -42 -20 -64 -18 -36 -23 -39 -67 -42 l-48 -3 -3 -94 c-3 -85
-1 -96 19 -117 13 -13 30 -24 40 -24 19 0 79 -64 79 -84 0 -8 7 -17 16 -20 9
-3 211 -6 450 -6 405 0 435 1 440 18 3 9 10 25 15 34 5 10 9 31 9 47 0 16 7
34 15 41 8 7 15 27 15 46 0 18 5 36 10 39 6 3 10 19 10 35 0 21 6 29 25 34 24
6 25 10 25 76 l0 70 -100 0 -100 0 0 40 c0 34 4 42 25 50 19 7 25 17 25 39 0
16 6 31 15 35 17 6 21 61 5 71 -15 9 -40 73 -40 102 0 13 -7 26 -15 29 -8 4
-15 19 -15 35 0 15 -9 36 -19 46 -13 12 -22 39 -27 81 -5 49 -11 65 -28 74
-11 6 -38 26 -59 44 -20 19 -44 34 -52 34 -8 0 -15 5 -15 12 0 6 -8 29 -17 50
l-17 38 -76 0 c-67 0 -79 -3 -98 -23z"/>
</g>
</svg>
